<svg width="104" height="104" viewBox="0 0 104 104" fill="none" xmlns="http://www.w3.org/2000/svg">
<rect width="104" height="104" rx="30" fill="#222228"/>
<path d="M68.7266 75C67.0509 75 65.4755 74.3326 64.2906 73.1208L59.1793 67.8933C57.4379 66.1124 56.2625 63.8656 55.7797 61.396L54.8065 56.4157C54.6938 55.8395 54.8703 55.2438 55.2767 54.8282C55.683 54.4127 56.2657 54.2325 56.8289 54.3474L61.6984 55.3429C64.1133 55.8366 66.31 57.0387 68.0515 58.8198L73.1628 64.0472C74.3476 65.2589 75.0001 66.87 75.0001 68.5838C75.0001 70.2976 74.3476 71.9088 73.1625 73.1206C71.9775 74.3326 70.4022 75 68.7266 75ZM58.6824 58.3116L59.1505 60.7068C59.4997 62.4936 60.3502 64.1189 61.61 65.4073L66.7213 70.6347C67.2568 71.1825 67.9691 71.4843 68.7266 71.4843C69.484 71.4843 70.1963 71.1825 70.7319 70.6347C71.2674 70.087 71.5625 69.3586 71.5625 68.5839C71.5625 67.8092 71.2674 67.0808 70.7319 66.5331L65.6205 61.3056C64.3608 60.0173 62.7716 59.1475 61.0246 58.7903L58.6824 58.3116ZM57.7681 72.9992C58.4438 72.3174 58.4511 71.2045 57.7843 70.5134C57.1177 69.8224 56.0293 69.8147 55.3538 70.4968C54.7227 71.1337 53.8868 71.4844 53.0001 71.4844C51.152 71.4844 49.6485 69.9468 49.6485 68.0567V47.4903C49.6485 43.6617 46.603 40.5469 42.8595 40.5469H37.875C35.9796 40.5469 34.4375 38.9698 34.4375 37.0313C34.4375 35.0928 35.9796 33.5156 37.875 33.5156H68.125C70.0204 33.5156 71.5625 35.0928 71.5625 37.0312C71.5625 38.9697 70.0204 40.5469 68.125 40.5469H63.1406C59.3971 40.5469 56.3516 43.6616 56.3516 47.4902V49.4238C56.3516 50.3946 57.1211 51.1816 58.0704 51.1816C59.0197 51.1816 59.7892 50.3946 59.7892 49.4238V47.4902C59.7892 45.6001 61.2926 44.0625 63.1407 44.0625H68.1251C71.916 44.0625 75.0001 40.9083 75.0001 37.0312C75.0001 33.1542 71.9159 30 68.125 30H37.875C34.0841 30 31 33.1542 31 37.0312C31 40.9083 34.0841 44.0625 37.875 44.0625H42.8594C44.7075 44.0625 46.2109 45.6001 46.2109 47.4902V68.0566C46.2109 71.8852 49.2564 74.9999 52.9999 74.9999C54.7963 75 56.4896 74.2894 57.7681 72.9992Z" fill="white"/>
</svg>
