<svg width="104" height="104" viewBox="0 0 104 104" fill="none" xmlns="http://www.w3.org/2000/svg">
<rect width="104" height="104" rx="30" fill="#222228"/>
<path d="M53.9999 54.396C52.0043 54.3961 50.0095 53.886 48.1904 52.8661L35.0737 45.5105C33.1716 44.444 31.9941 42.3815 32.0003 40.128C32.0065 37.8745 33.1955 35.8192 35.1034 34.7641L48.2532 27.4923C51.8516 25.5026 56.1481 25.5026 59.7465 27.4923L72.8963 34.7641C74.8042 35.8191 75.9932 37.8744 75.9994 40.128C76.0056 42.3815 74.8281 44.444 72.9261 45.5105L59.8092 52.8661C57.9907 53.886 55.9949 54.3959 53.9999 54.396ZM53.9999 29.5941C52.5781 29.5941 51.1565 29.9524 49.8605 30.6691L36.7108 37.9409C35.9164 38.3802 35.4404 39.2018 35.4379 40.1385C35.4353 41.0752 35.9065 41.8996 36.6986 42.3438L49.8155 49.6992C52.4359 51.1686 55.5643 51.1686 58.1846 49.6992L71.3016 42.3438C72.0937 41.8996 72.5649 41.0752 72.5623 40.1385C72.5598 39.2018 72.0838 38.3802 71.2894 37.9409L58.1392 30.6691C56.8432 29.9525 55.4216 29.5941 53.9999 29.5941ZM49.057 29.0807H49.0578H49.057ZM59.8093 69.1275L75.0932 60.5571C75.9297 60.0881 76.2441 58.9988 75.7955 58.1244C75.3468 57.2498 74.305 56.9211 73.4685 57.3902L58.1845 65.9606C55.5643 67.43 52.4358 67.43 49.8087 65.9569L34.5248 57.4764C33.6861 57.0111 32.6458 57.3446 32.2009 58.2211C31.7559 59.0977 32.0748 60.1853 32.9133 60.6506L48.1905 69.1274C50.0096 70.1475 52.0044 70.6574 53.9999 70.6574C55.9949 70.6575 57.9907 70.1474 59.8093 69.1275ZM59.8093 61.0418L75.0932 52.4714C75.9297 52.0023 76.2441 50.9131 75.7955 50.0386C75.3468 49.164 74.305 48.8355 73.4685 49.3044L58.1845 57.8749C55.5643 59.3443 52.4358 59.3442 49.8087 57.8712L34.5248 49.3906C33.6861 48.9253 32.6458 49.2589 32.2009 50.1354C31.7559 51.012 32.0748 52.0996 32.9133 52.5649L48.1905 61.0417C50.0096 62.0618 52.0044 62.5716 53.9999 62.5716C55.9949 62.5716 57.9907 62.0617 59.8093 61.0418Z" fill="white"/>
</svg>
