<svg width="104" height="104" viewBox="0 0 104 104" fill="none" xmlns="http://www.w3.org/2000/svg">
<rect width="104" height="104" rx="30" fill="#222228"/>
<path d="M57.9125 67.8765C57.4637 67.8765 57.0148 67.702 56.6718 67.3525L34.9385 45.2122C32.9531 43.1825 31.614 40.6247 31.0643 37.813C31.0627 37.8051 31.0613 37.7971 31.0599 37.7892L30.0297 32.1252C29.9237 31.5432 30.1052 30.945 30.5149 30.5263C30.9244 30.1078 31.5095 29.922 32.079 30.0303L37.6199 31.0835C37.6276 31.0851 37.6354 31.0864 37.643 31.0881C40.3936 31.6501 42.8959 33.0187 44.8793 35.0463L66.6104 57.1843C67.298 57.8848 67.2999 59.0224 66.6147 59.7252C65.9294 60.4279 64.8165 60.43 64.129 59.7295L42.3957 37.5893C40.9054 36.0659 39.0285 35.0381 36.9652 34.6141L33.9538 34.0418L34.5136 37.1199C34.9282 39.2291 35.9338 41.1478 37.4221 42.6691L59.1532 64.8074C59.8408 65.5078 59.8426 66.6454 59.1574 67.3482C58.8141 67.7003 58.3633 67.8765 57.9125 67.8765ZM42.0023 73.8982L48.7685 66.9799C49.4549 66.2781 49.4548 65.1405 48.7682 64.439C48.0818 63.7374 46.9689 63.7375 46.2826 64.4393L39.5166 71.3574C38.146 72.7584 35.9157 72.7584 34.5452 71.3574C33.8812 70.6786 33.5155 69.7763 33.5155 68.8165C33.5155 67.8567 33.8812 66.9543 34.5453 66.2753L41.2675 59.4021C41.9539 58.7002 41.9537 57.5627 41.2673 56.8612C40.5808 56.1597 39.4678 56.1597 38.7814 56.8614L32.0594 63.7345C30.7315 65.0918 30.0001 66.8967 30.0001 68.8164C30.0001 70.7361 30.7314 72.5409 32.0594 73.8983C33.4299 75.2994 35.2303 75.9998 37.0307 75.9998C38.8311 75.9998 40.6316 75.2992 42.0023 73.8982ZM66.1014 49.2576L70.06 45.21C72.0433 43.1826 73.3824 40.6247 73.9322 37.8129C73.9338 37.805 73.9353 37.797 73.9367 37.7891L74.9668 32.1252C75.0727 31.5431 74.8912 30.945 74.4816 30.5263C74.0721 30.1077 73.4871 29.922 72.9175 30.0303L67.3766 31.0836C67.3688 31.0851 67.3611 31.0865 67.3534 31.0882C64.6029 31.6501 62.1005 33.0188 60.117 35.0465L56.2242 39.0269C55.5378 39.7287 55.538 40.8664 56.2246 41.5678C56.9111 42.2694 58.024 42.2694 58.7102 41.5675L62.6028 37.5873C64.0911 36.0658 65.9681 35.0381 68.0314 34.6141L71.0426 34.0419L70.4827 37.1203C70.068 39.2295 69.0624 41.148 67.5741 42.6694L63.6153 46.7171C62.9289 47.4189 62.9291 48.5566 63.6157 49.258C63.9589 49.6087 64.4085 49.7841 64.8583 49.7841C65.3082 49.784 65.7581 49.6086 66.1014 49.2576ZM72.937 73.8983C74.265 72.5409 74.9963 70.7361 74.9963 68.8164C74.9963 66.9068 74.2726 65.1108 72.9578 63.7558L71.6196 62.2993C70.9551 61.576 69.8427 61.5403 69.1351 62.2195C68.4275 62.8989 68.3926 64.0359 69.0572 64.7593L70.4129 66.2349C70.4254 66.2486 70.4382 66.2622 70.4513 66.2754C71.1153 66.9542 71.481 67.8565 71.481 68.8163C71.481 69.7762 71.1153 70.6786 70.4513 71.3572C69.0865 72.7522 66.8696 72.7583 65.4975 71.375L64.1626 69.9219C63.498 69.1987 62.3857 69.163 61.678 69.8422C60.9704 70.5215 60.9355 71.6586 61.6 72.3819L62.9557 73.8577C62.9684 73.8714 62.9811 73.8849 62.9942 73.8982C64.3648 75.2992 66.1652 75.9998 67.9656 75.9998C69.7659 75.9999 71.5664 75.2993 72.937 73.8983Z" fill="white"/>
</svg>
